<svg width="38" height="38" viewBox="0 0 38 38" fill="none" xmlns="http://www.w3.org/2000/svg">
<path d="M10.0771 11.2979C10.0769 9.75716 10.4758 8.24262 11.2347 6.90176C11.9937 5.5609 13.087 4.43942 14.408 3.64651C15.7291 2.8536 17.233 2.41629 18.7733 2.37715C20.3135 2.33801 21.8377 2.69837 23.1973 3.42316C24.557 4.14795 25.7058 5.21246 26.5319 6.51304C27.358 7.81362 27.8332 9.30595 27.9113 10.8447C27.9895 12.3835 27.6678 13.9163 26.9777 15.2939C26.2875 16.6714 25.2524 17.8468 23.9732 18.7055C26.5884 19.6811 28.8599 21.4024 30.5063 23.6563C32.1528 25.9102 33.1017 28.5977 33.2357 31.3857C33.2465 31.6195 33.2112 31.8531 33.1317 32.0732C33.0523 32.2933 32.9302 32.4956 32.7725 32.6686C32.6148 32.8415 32.4245 32.9816 32.2127 33.081C32.0008 33.1804 31.7714 33.237 31.5376 33.2477H6.46232C5.99058 33.2255 5.54694 33.0169 5.22895 32.6678C4.91096 32.3186 4.74464 31.8574 4.76657 31.3857C4.90008 28.5973 5.84884 25.9093 7.4953 23.6549C9.14176 21.4006 11.4135 19.6789 14.0291 18.7032C12.8129 17.8883 11.8161 16.7864 11.1268 15.4949C10.4376 14.2033 10.077 12.7619 10.0771 11.2979Z" fill="#9C9C9C"/>
</svg>
